<?xml version="1.0" standalone="no"?>
<!DOCTYPE svg PUBLIC "-//W3C//DTD SVG 20010904//EN"
 "http://www.w3.org/TR/2001/REC-SVG-20010904/DTD/svg10.dtd">
<svg version="1.0" xmlns="http://www.w3.org/2000/svg"
 width="300.000000pt" height="226.000000pt" viewBox="0 0 300.000000 226.000000"
 preserveAspectRatio="xMidYMid meet">
<metadata>
Created by potrace 1.10, written by Peter Selinger 2001-2011
</metadata>
<g transform="translate(0.000000,226.000000) scale(0.100000,-0.100000)"
fill="#000000" stroke="none">
<path d="M1459 2207 c-13 -13 -29 -32 -35 -42 -6 -10 -25 -24 -43 -30 -45 -15
-84 -60 -75 -88 10 -34 45 -67 70 -67 43 0 54 -10 54 -52 0 -47 25 -94 54
-102 42 -11 66 -6 82 19 16 24 20 40 23 91 1 16 10 23 33 28 105 21 102 155
-4 180 -15 3 -36 19 -45 34 -37 57 -75 67 -114 29z m88 -53 c13 -38 17 -42 54
-47 50 -7 69 -22 69 -57 0 -36 -16 -48 -70 -52 l-45 -3 -1 -65 -1 -65 -42 -3
-41 -3 0 75 0 75 -62 3 -63 3 -3 34 c-4 44 4 51 66 54 51 2 52 2 52 34 0 72
65 84 87 17z"/>
<path d="M2135 1978 c-16 -5 -54 -16 -84 -24 -46 -12 -131 -51 -166 -76 -66
-47 -174 -145 -388 -353 -40 -38 -102 -98 -137 -131 -36 -34 -88 -86 -116
-115 -164 -172 -331 -323 -383 -347 -70 -33 -143 -33 -225 -2 -62 24 -136 82
-136 108 0 8 -3 13 -6 9 -10 -9 -38 52 -53 116 -34 141 34 287 163 350 45 22
68 27 133 27 113 0 168 -29 311 -164 62 -58 121 -106 131 -106 27 0 101 78
101 106 0 17 -27 53 -85 115 -168 180 -271 235 -451 244 -207 10 -417 -139
-485 -345 -28 -86 -30 -232 -4 -305 9 -27 18 -54 19 -60 1 -5 19 -36 40 -67
41 -62 115 -134 162 -158 16 -8 45 -25 66 -37 31 -19 89 -33 187 -46 34 -5
115 11 178 35 47 17 207 125 224 150 28 43 695 693 798 778 278 229 707 115
852 -227 29 -69 33 -91 37 -189 7 -189 -43 -318 -170 -442 -62 -60 -89 -78
-168 -109 -125 -50 -273 -59 -379 -23 -111 38 -167 77 -307 217 -73 73 -137
133 -142 133 -5 0 -21 -9 -35 -20 -14 -11 -29 -20 -34 -20 -5 0 -19 -20 -32
-44 -23 -41 -24 -46 -8 -69 25 -39 230 -226 299 -273 35 -24 68 -48 75 -54 7
-5 16 -10 21 -10 5 0 23 -7 41 -16 58 -29 193 -57 276 -57 74 0 186 17 210 31
6 4 21 8 35 9 14 2 62 21 106 43 139 68 293 233 354 380 13 30 27 59 32 65 10
11 11 455 0 455 -4 0 -15 21 -24 48 -29 79 -89 171 -163 247 -108 111 -221
179 -355 210 -84 20 -269 28 -315 13z m335 -53 c193 -59 361 -206 446 -391 46
-98 64 -185 64 -309 0 -195 -58 -337 -195 -482 -97 -104 -171 -151 -305 -194
-130 -43 -254 -50 -365 -21 -169 44 -250 94 -439 274 l-119 114 44 46 43 47
136 -138 c108 -110 149 -144 205 -173 322 -165 723 -7 841 332 34 101 43 248
20 340 -58 230 -240 408 -466 456 -93 20 -190 13 -292 -19 -135 -43 -166 -70
-714 -610 -172 -169 -333 -324 -359 -343 -104 -80 -231 -116 -337 -96 -138 25
-304 143 -356 252 -65 137 -68 290 -8 416 100 211 319 316 539 259 101 -26
155 -62 279 -183 65 -63 118 -119 118 -123 0 -6 -68 -79 -74 -79 0 0 -51 49
-112 109 -147 143 -192 166 -324 166 -78 0 -103 -5 -141 -23 -77 -38 -125 -87
-165 -167 -36 -72 -36 -76 -32 -167 3 -77 9 -103 33 -150 36 -73 84 -122 160
-161 54 -29 69 -32 150 -32 136 0 152 11 450 304 685 676 732 714 919 757 79
18 280 12 356 -11z"/>
<path d="M555 1960 c-66 -17 -136 -46 -180 -73 -106 -66 -208 -160 -264 -242
-43 -64 -55 -88 -85 -179 -24 -72 -26 -92 -26 -247 0 -101 4 -170 10 -174 6
-3 10 -12 10 -20 0 -27 40 -122 78 -183 44 -73 156 -190 225 -234 152 -97 346
-147 492 -127 95 14 138 26 220 66 131 62 141 71 527 453 364 361 488 477 549
513 50 29 61 32 144 32 77 0 98 -4 145 -27 70 -33 122 -88 154 -160 32 -72 32
-187 0 -258 -26 -56 -88 -118 -156 -155 -77 -42 -181 -47 -259 -12 -62 27 -83
44 -210 166 -47 46 -94 88 -103 93 -29 17 -136 -73 -136 -114 0 -38 228 -243
329 -296 118 -62 281 -75 408 -33 40 13 70 27 68 31 -3 5 6 11 19 14 54 13
218 193 208 229 -1 4 2 7 8 7 5 0 12 16 16 35 3 19 9 35 13 35 11 0 11 159 0
230 -29 185 -169 341 -354 395 -89 26 -189 30 -260 11 -139 -36 -171 -63 -680
-565 -170 -169 -339 -332 -374 -364 -140 -127 -326 -171 -501 -121 -189 55
-337 201 -386 381 -22 83 -27 236 -9 303 45 171 168 316 323 380 72 30 201 54
247 46 191 -35 261 -74 430 -243 50 -49 102 -98 117 -107 27 -17 29 -17 61 3
18 11 42 36 52 54 17 31 17 35 1 69 -22 45 -193 210 -298 285 -65 47 -191 100
-268 112 -98 16 -225 12 -305 -9z m328 -31 c74 -16 182 -68 257 -125 73 -56
270 -246 270 -261 0 -6 -16 -28 -36 -49 l-36 -39 -96 102 c-203 213 -340 281
-542 270 -155 -8 -280 -66 -391 -179 -139 -143 -192 -353 -143 -568 25 -112
66 -184 153 -270 131 -130 272 -186 446 -178 101 5 173 27 261 79 40 23 171
145 419 389 454 448 547 533 633 573 124 58 300 46 430 -30 70 -41 141 -121
181 -203 36 -75 36 -75 36 -210 0 -128 -1 -138 -28 -193 -16 -32 -53 -84 -83
-117 -112 -120 -221 -166 -377 -158 -140 7 -231 49 -350 161 -34 33 -87 81
-117 108 l-54 49 47 45 47 45 72 -76 c194 -205 313 -256 476 -206 217 68 321
306 220 506 -93 183 -340 251 -505 139 -51 -35 -279 -251 -612 -582 -332 -329
-380 -365 -557 -416 -155 -45 -292 -29 -469 55 -227 107 -371 302 -408 552
-20 142 18 327 95 455 18 31 62 86 98 123 186 191 410 262 663 209z"/>
<path d="M1483 640 c-12 -5 -33 -25 -45 -44 -13 -20 -27 -36 -31 -36 -5 0 -24
-7 -42 -15 -32 -16 -55 -50 -55 -83 0 -25 45 -69 79 -77 24 -5 30 -13 36 -42
8 -47 46 -83 85 -83 23 0 35 7 50 32 11 18 20 41 20 50 0 10 19 30 42 44 58
37 68 48 68 78 0 30 -42 82 -72 89 -13 4 -31 22 -41 40 -15 27 -56 61 -70 56
-1 0 -12 -4 -24 -9z m61 -46 c3 -9 6 -29 6 -45 0 -26 3 -29 34 -29 48 0 81
-29 72 -63 -5 -21 -16 -29 -54 -40 l-47 -14 -9 -57 c-7 -49 -11 -56 -31 -56
-38 0 -55 26 -55 81 l0 49 -49 0 c-46 0 -50 2 -60 31 -14 39 -14 35 5 53 9 10
33 16 60 16 41 0 44 2 44 26 0 41 18 64 49 64 17 0 31 -6 35 -16z"/>
<path d="M288 152 c-53 -2 -71 -8 -92 -27 -30 -28 -33 -64 -10 -100 16 -24 21
-25 124 -25 60 0 116 3 125 6 16 6 45 54 45 73 0 6 -13 25 -30 44 -31 36 -30
36 -162 29z m140 -44 c19 -19 14 -56 -10 -72 -18 -12 -43 -13 -118 -8 l-95 7
-3 33 c-3 26 1 34 20 41 35 14 192 13 206 -1z"/>
<path d="M594 126 c-36 -36 -38 -56 -9 -100 17 -25 21 -26 115 -26 95 0 99 1
119 26 29 36 26 66 -8 103 -28 29 -33 31 -106 31 -74 0 -78 -1 -111 -34z m201
-51 l0 -40 -89 -3 c-94 -3 -106 2 -106 44 0 37 20 45 110 42 l85 -3 0 -40z"/>
<path d="M971 144 c-61 -26 -71 -63 -35 -121 l14 -23 578 0 579 0 21 23 c12
13 22 33 22 44 0 29 -53 83 -82 83 -12 0 -259 1 -547 2 -368 2 -532 0 -550 -8z
m1129 -39 c6 -3 10 -21 10 -39 l0 -33 -88 -7 c-145 -11 -1045 -6 -1059 6 -17
13 -17 60 0 77 9 9 131 11 570 7 307 -3 562 -8 567 -11z"/>
<path d="M2325 149 c-47 -5 -64 -12 -82 -33 -27 -32 -29 -48 -6 -87 17 -29 18
-29 109 -29 96 0 110 5 135 51 13 25 5 50 -26 79 -28 26 -47 29 -130 19z m121
-56 c12 -47 -4 -58 -99 -61 -78 -3 -86 -1 -92 18 -9 27 2 58 23 63 9 3 50 5
89 6 71 1 73 0 79 -26z"/>
<path d="M2662 151 c-53 -5 -68 -11 -88 -34 -28 -33 -30 -58 -8 -92 15 -24 22
-25 108 -25 91 0 92 0 109 29 9 16 17 39 17 51 0 21 -51 81 -67 78 -4 0 -37
-4 -71 -7z m104 -55 c14 -59 -7 -73 -107 -75 -51 -1 -57 1 -67 25 -13 27 -3
58 20 67 7 3 43 6 80 6 63 1 68 0 74 -23z"/>
</g>
</svg>
